<svg xmlns="http://www.w3.org/2000/svg" width="900" height="1200" viewBox="0 0 900 1200" role="img" aria-hidden="true">
  <defs>
    <radialGradient id="transform-3-before-pool0" cx="50%" cy="50%" r="50%">
      <stop offset="0%" stop-color="#E7D2B5" stop-opacity="0.95"/>
      <stop offset="100%" stop-color="#E7D2B5" stop-opacity="0"/>
    </radialGradient>
    <radialGradient id="transform-3-before-pool1" cx="50%" cy="50%" r="50%">
      <stop offset="0%" stop-color="#BE8577" stop-opacity="0.8099999999999999"/>
      <stop offset="100%" stop-color="#BE8577" stop-opacity="0"/>
    </radialGradient>
    <radialGradient id="transform-3-before-pool2" cx="50%" cy="50%" r="50%">
      <stop offset="0%" stop-color="#A5947F" stop-opacity="0.6699999999999999"/>
      <stop offset="100%" stop-color="#A5947F" stop-opacity="0"/>
    </radialGradient>
    <linearGradient id="transform-3-before-veil" x1="0" y1="0" x2="0.35" y2="1">
      <stop offset="0%" stop-color="#FFFCF7" stop-opacity="0.34"/>
      <stop offset="48%" stop-color="#FAF8F5" stop-opacity="0"/>
      <stop offset="100%" stop-color="#A5947F" stop-opacity="0.34"/>
    </linearGradient>
    <radialGradient id="transform-3-before-vignette" cx="50%" cy="46%" r="72%">
      <stop offset="55%" stop-color="#A5947F" stop-opacity="0"/>
      <stop offset="100%" stop-color="#A5947F" stop-opacity="0.42"/>
    </radialGradient>
    <filter id="transform-3-before-grain" x="0" y="0" width="100%" height="100%">
      <feTurbulence type="fractalNoise" baseFrequency="0.9" numOctaves="3" stitchTiles="stitch"/>
      <feColorMatrix type="saturate" values="0"/>
    </filter>
    <filter id="transform-3-before-soft" x="-30%" y="-30%" width="160%" height="160%">
      <feGaussianBlur stdDeviation="45"/>
    </filter>
  </defs>

  <rect width="900" height="1200" fill="#EDE5DA"/>
  <circle cx="486.3" cy="1002.9" r="691.5" fill="url(#transform-3-before-pool0)"/>
  <circle cx="186.9" cy="691.8" r="821.1" fill="url(#transform-3-before-pool1)"/>
  <circle cx="203.6" cy="865.2" r="863.3" fill="url(#transform-3-before-pool2)"/>

  <ellipse cx="481.2" cy="699.1" rx="354" ry="431.9"
           fill="#FFFCF7" opacity="0.5" filter="url(#transform-3-before-soft)"/>

  <g fill="none" stroke-linecap="round">
    <path d="M -72 1158.8 C 270 751.8, 612 948.4, 972 541.4" stroke="#A9663A" stroke-width="1.2" opacity="0.3"/>
    <path d="M -72 41.5 C 270 -290.9, 612 739.3, 972 406.9" stroke="#BE8577" stroke-width="3.3" opacity="0.5"/>
    <path d="M -72 951 C 270 830.8, 612 456.7, 972 336.5" stroke="#A5947F" stroke-width="1" opacity="0.5"/>
    <path d="M -72 215.9 C 270 -70.5, 612 178.6, 972 -107.8" stroke="#A9663A" stroke-width="3" opacity="0.5"/>
    <path d="M -72 1196.4 C 270 1067.9, 612 1063.1, 972 934.6" stroke="#BE8577" stroke-width="2.3" opacity="0.4"/>
    <path d="M -72 789.9 C 270 633, 612 1553, 972 1396.1" stroke="#A5947F" stroke-width="2.3" opacity="0.5"/>
    <path d="M -72 306.4 C 270 98.3, 612 -156, 972 -364.1" stroke="#A9663A" stroke-width="3.1" opacity="0.5"/>
  </g>

  <rect width="900" height="1200" fill="url(#transform-3-before-veil)"/>
  <rect width="900" height="1200" fill="url(#transform-3-before-vignette)"/>
  <rect width="900" height="1200" filter="url(#transform-3-before-grain)" opacity="0.16" style="mix-blend-mode:multiply"/>
</svg>
